PathFileType	4	(X/Y/Z)	C:/Users/opensim2020/Desktop/walking_exp_matlab/subject03_walking15_straight_03.trc	
DataRate	CameraRate	NumFrames	NumMarkers	Units	OrigDataRate	OrigDataStartFrame	OrigNumFrames	
100.00	100.00	6	47	mm	100.00	1742	220	
Frame#	Time	LFHD			RFHD			LBHD			RBHD			C7			T10			CLAV			STRN			RBAK			LSHO			LUPA			LELB			LFRM			LWRA			LWRB			LFIN			RSHO			RUPA			RELB			RFRM			RWRA			RWRB			RFIN			LASI			RASI			LPSI			RPSI			LTHI			LKNE			LTIB			LANK			LHEE			LTOE			RTHI			RKNE			RTIB			RANK			RHEE			RTOE			*39			*40			*41			*42			*43			*44			*45			*46			
		X1	Y1	Z1	X2	Y2	Z2	X3	Y3	Z3	X4	Y4	Z4	X5	Y5	Z5	X6	Y6	Z6	X7	Y7	Z7	X8	Y8	Z8	X9	Y9	Z9	X10	Y10	Z10	X11	Y11	Z11	X12	Y12	Z12	X13	Y13	Z13	X14	Y14	Z14	X15	Y15	Z15	X16	Y16	Z16	X17	Y17	Z17	X18	Y18	Z18	X19	Y19	Z19	X20	Y20	Z20	X21	Y21	Z21	X22	Y22	Z22	X23	Y23	Z23	X24	Y24	Z24	X25	Y25	Z25	X26	Y26	Z26	X27	Y27	Z27	X28	Y28	Z28	X29	Y29	Z29	X30	Y30	Z30	X31	Y31	Z31	X32	Y32	Z32	X33	Y33	Z33	X34	Y34	Z34	X35	Y35	Z35	X36	Y36	Z36	X37	Y37	Z37	X38	Y38	Z38	X39	Y39	Z39	X40	Y40	Z40	X41	Y41	Z41	X42	Y42	Z42	X43	Y43	Z43	X44	Y44	Z44	X45	Y45	Z45	X46	Y46	Z46	X47	Y47	Z47	

166	1.650	1340.78796	677.84674	1629.40930	1472.66980	692.54541	1644.31348	1365.34106	562.98224	1562.52051	1493.01184	581.59833	1577.13855	1427.46509	565.94714	1409.00940	1419.45886	570.36749	1097.51819	1414.97266	695.11548	1349.55823	1400.68567	760.45648	1191.63403	1519.59937	546.45917	1226.27734	1266.72607	627.06018	1386.20435	1192.69263	648.53613	1192.91052	1182.86023	689.82831	1077.08801	1191.99255	778.22626	984.93018	1231.84424	863.74457	910.21405	1189.45569	837.86188	885.96545	1208.04907	903.21173	835.43878	1578.22144	658.71594	1363.39722	1655.44153	672.80231	1142.63025	1669.69421	690.29352	1031.05432	1673.07385	706.80798	894.83807	1633.33289	724.87445	796.13812	1686.25818	708.34344	795.71381	1671.51660	721.94519	720.57892	1293.34778	726.83911	939.62665	1528.35364	747.91852	951.60175	1354.38721	570.30957	954.20740	1501.70557	582.43958	974.82007	1254.53149	712.09680	630.02240	1277.55554	748.64502	454.53439	1296.69189	596.91876	329.54291	1352.36975	446.97906	192.76109	1395.14380	397.87845	198.69475	1371.19360	519.56110	63.08878	1586.14624	716.22125	656.48151	1550.71741	746.57135	480.11624	1564.98926	699.52930	290.77139	1525.05884	663.39136	76.01057	1476.95898	616.94275	42.74737	1509.18274	803.42633	37.38910	1401.13989	591.14984	1675.80896																					 
167	1.660	1340.25793	691.31281	1630.16235	1472.01721	706.37604	1644.75073	1365.05615	576.42749	1563.57495	1492.61133	595.39850	1577.89978	1427.41846	579.36328	1409.83801	1420.13525	582.94122	1098.47717	1414.15686	708.32617	1350.13806	1399.82874	773.21680	1192.04163	1520.26917	560.10730	1227.47278	1266.16833	639.46442	1386.60852	1192.68066	658.28522	1192.47241	1182.89026	698.17627	1075.99548	1191.63977	783.99750	980.84778	1231.02173	866.57306	902.32520	1187.63025	840.31940	880.04950	1206.39551	903.22504	826.21100	1577.55115	673.22089	1364.51416	1654.83105	690.51062	1143.66394	1669.28760	709.72540	1032.62903	1672.33557	728.25787	896.62695	1632.60376	747.31781	798.45764	1685.66663	731.76563	797.60693	1670.71997	747.09772	723.04211	1293.72607	739.51782	940.89886	1528.47107	760.52582	952.11969	1354.64575	582.86847	955.57471	1502.00549	595.27057	975.47040	1254.34460	730.70221	631.97107	1277.30579	772.11700	457.59650	1297.36035	624.54584	327.84283	1354.03064	480.20087	185.64638	1396.91711	429.95352	188.97720	1373.22742	559.79468	61.03928	1585.45178	724.93384	656.37244	1550.38245	750.91925	479.46356	1564.72607	701.43286	290.79681	1524.60059	663.51398	76.19987	1476.56030	617.08368	43.18096	1509.13098	803.56873	37.36673	1396.41211	603.93481	1674.68701																					 
168	1.670	1339.74524	704.88708	1630.74084	1471.20520	720.11499	1644.98828	1364.59656	589.76086	1564.43408	1492.17847	609.13806	1578.47363	1426.99902	592.81488	1410.44727	1420.73999	595.76007	1099.14868	1413.31860	721.60999	1350.56616	1399.02014	785.97595	1192.27332	1520.60657	573.63605	1228.51697	1265.53699	651.89160	1386.78418	1192.39697	667.96912	1191.89270	1182.79346	706.66852	1074.75903	1190.97998	789.35577	976.52008	1229.97742	868.82690	894.17456	1185.71777	842.20300	874.01788	1204.31897	902.33636	816.87152	1577.11841	687.74103	1365.35425	1654.51697	708.63281	1144.97681	1668.62000	729.19391	1034.23218	1671.63855	749.95905	898.61688	1631.46350	769.95325	800.75897	1684.90344	755.32513	799.60193	1669.84192	772.29871	725.62561	1294.80713	752.93756	942.50555	1528.62805	772.99695	952.48547	1354.76526	595.13995	956.76514	1502.18665	608.07239	975.88953	1254.21558	748.61981	633.84283	1277.15442	794.82098	460.70062	1297.97595	652.48907	325.21024	1355.65051	513.87231	177.26044	1398.70471	463.25504	177.89395	1374.61621	601.40564	58.56886	1584.75537	733.53766	656.17731	1550.25317	755.23895	478.83148	1564.47925	703.56140	290.83099	1524.33264	663.68903	76.45776	1476.28613	617.09436	43.34777	1509.08862	803.67792	37.33473	1396.05847	617.77087	1675.38794																					 
169	1.680	1339.04004	718.40479	1631.12256	1470.52539	733.94800	1645.14771	1363.97559	603.19379	1565.05811	1491.61304	622.89038	1578.88354	1426.65662	606.22925	1410.96301	1421.29138	608.38989	1099.75854	1412.43616	734.82758	1350.77759	1398.21973	798.75800	1192.32178	1520.65649	587.16669	1229.38611	1264.86902	664.56085	1386.77539	1192.30994	677.98358	1191.22009	1182.73145	714.70361	1073.29895	1190.38257	794.53406	972.08728	1228.78088	870.37415	885.74133	1183.70251	843.52191	867.88715	1201.85693	900.60156	807.47046	1576.36719	702.01038	1366.12476	1653.83533	726.22363	1146.05481	1667.84094	748.64111	1035.76794	1670.54700	771.52588	900.46381	1630.37708	792.65216	803.16229	1684.09863	779.09656	801.82477	1668.77246	797.63696	728.28583	1295.17749	765.39001	943.55762	1528.84473	785.36041	952.59534	1354.87048	607.38074	957.22968	1502.36572	620.78107	976.14954	1254.07483	766.14130	635.65289	1277.22949	816.79681	463.75195	1298.70972	680.74939	321.77731	1357.31201	548.70392	168.04831	1400.61157	498.06305	165.49959	1375.77588	644.02106	55.67624	1584.01709	742.18884	656.01038	1550.14026	759.58722	478.16467	1564.32397	705.97400	290.81982	1524.17102	663.86810	76.74975	1476.19360	617.32111	44.22319	1509.11890	803.80182	37.30829	1395.69421	631.61206	1675.95667																					 
170	1.690	1338.65332	731.56177	1631.15881	1469.74072	747.72736	1645.15454	1363.35010	616.52240	1565.40356	1491.24194	636.95001	1579.31799	1426.21021	619.65002	1411.34521	1421.79211	620.99219	1100.16724	1411.52173	748.02863	1350.80139	1397.42859	811.57990	1192.20496	1520.74329	600.54315	1230.23560	1264.14160	677.28772	1386.46826	1192.20740	688.11682	1190.31030	1182.53687	722.79242	1071.69409	1189.51465	799.04175	967.42755	1227.36194	871.52209	877.34943	1181.58203	844.31067	861.73889	1198.96021	898.35620	798.30603	1575.57349	716.16412	1366.73401	1653.29639	743.84082	1147.19604	1666.99182	767.97351	1037.32751	1669.54028	793.34528	902.46979	1629.22620	815.45752	805.54071	1682.82068	802.87793	803.96100	1667.62073	822.98840	731.15839	1295.71326	778.61481	944.69202	1529.08191	797.66962	952.47009	1355.13831	620.31158	958.07385	1502.50598	633.45905	976.27924	1253.80774	783.25458	637.42609	1277.33887	838.09021	466.73077	1299.09326	708.79114	318.29810	1358.71265	584.73102	158.03882	1402.53638	534.43243	152.23743	1376.38367	687.26038	52.50961	1583.65076	749.98224	655.77997	1550.11560	764.01593	477.53326	1563.89893	708.09259	290.89618	1524.03174	664.13837	77.11822	1476.03906	617.22876	44.74535	1509.15125	803.95496	37.23674	1392.25916	644.97449	1675.32312																					 
171	1.700	1337.44507	745.31311	1631.19971	1468.82300	761.45203	1644.99597	1362.56982	629.89142	1565.46033	1490.47961	650.57507	1579.30994	1425.61670	633.06042	1411.41199	1421.94922	633.73456	1100.26550	1410.48389	761.21387	1350.61328	1396.67310	824.39111	1191.84607	1520.80261	613.94116	1230.94824	1263.32251	690.12683	1385.94641	1191.83154	698.33282	1189.24622	1182.16272	730.93414	1069.85510	1188.44958	803.47638	962.64960	1225.80444	872.17670	868.92090	1179.49744	844.65454	855.55939	1195.82227	895.37726	789.29706	1574.71423	730.31000	1367.22302	1652.63672	761.07483	1148.18274	1666.13940	787.46063	1038.83472	1668.41577	815.02124	904.42041	1627.72449	838.33002	807.97198	1681.76123	826.68945	806.27032	1666.28357	848.24976	733.97913	1295.70593	790.62616	945.13831	1529.20801	809.98468	952.06689	1354.78223	632.84338	958.09875	1502.53918	646.01526	976.28522	1253.52576	800.15015	639.07623	1277.61365	858.72186	469.69952	1299.62537	736.82123	314.41455	1359.87781	621.71411	147.52451	1404.04700	571.97961	138.41190	1376.57739	730.97229	49.27245	1583.40356	758.21564	655.66394	1550.17310	768.22729	476.87784	1563.81653	710.47534	291.01035	1523.81116	664.35022	77.45484	1475.83618	617.48901	45.42247	1509.18896	804.04266	37.22154	1397.41235	659.72076	1677.31311																					 
